# xmcd
#
# Track frame offsets:
# 150
# 17233
# 40216
# 61729
# 84226
# 102235
# 125418
# 152059
# 165005
# 185955
#
# Disc length: 2773 seconds
#
#
# Revision: 0
# Processed by: cddbd v1.5.1PL0 Copyright (c) Steve Scherf et al.
# Submitted via: FreeRIP 2.90 
#
DISCID=730ad30a
DTITLE=Beverly Houston - Evolution
DYEAR=2002
DGENRE=R&B
TTITLE0=634-5789
TTITLE1=Sunny
TTITLE2=Let's Get It On
TTITLE3=Do Right Woman, Do Right Man
TTITLE4=The Right Kind of Love
TTITLE5=Get Here
TTITLE6=Dr. Feelgood
TTITLE7=When I Fall In Love
TTITLE8=You're My Live
TTITLE9=Angel Eyes
EXTD=
EXTT0=
EXTT1=
EXTT2=
EXTT3=
EXTT4=
EXTT5=
EXTT6=
EXTT7=
EXTT8=
EXTT9=
PLAYORDER=
